<?xml version="1.0" ?><svg height="24px" version="1.1" viewBox="0 0 24 24" width="24px" xmlns="http://www.w3.org/2000/svg" xmlns:sketch="http://www.bohemiancoding.com/sketch/ns" xmlns:xlink="http://www.w3.org/1999/xlink"><title/><desc/><defs/><g fill="none" fill-rule="evenodd" id="miu" stroke="none" stroke-width="1"><g id="Artboard-1" transform="translate(-647.000000, -515.000000)"><g id="slice" transform="translate(215.000000, 119.000000)"/><path d="M659,523.5 L659,517.5 L658,516 L658,523.012014 L656,524.917837 L654.002367,523.012014 L654.002367,516 L653,517.5 L653,523.5 L655.5,526 C655.5,526 655.25,528.851328 655.25,531.5 C655.25,534.148672 655.5,538 655.5,538 L656.5,538 C656.5,538 656.75,534.128897 656.75,531.5 C656.75,528.871103 656.5,526 656.5,526 L659,523.5 L659,523.5 Z M655.5,516 L655.5,523 L656.5,523 L656.5,516 L655.5,516 L655.5,516 Z M666,523.413795 C666,522.416442 665.5,515.999998 663.000002,516 C660.500004,516.000002 660,522.416442 660,523.413795 C660,525.408501 662.5,526.031765 662.5,526.031765 C662.5,526.031765 662.25,529.023824 662.25,531.517206 C662.25,534.010588 662.5,538 662.5,538 L663.5,538 C663.5,538 663.75,534.121612 663.75,531.517206 C663.75,528.9128 663.5,526.031765 663.5,526.031765 C663.5,526.031765 666,525.408501 666,523.413795 Z M663,525 C665.335815,525 665.299988,523.366211 665,521 C664.700012,518.633789 663.705078,517 663,517 C662.294922,517 661.309204,518.562622 661,521 C660.690796,523.437378 660.664185,525 663,525 Z" fill="#000000" id="food-fork-spoon-restaurant-eating-outline-stroke"/></g></g></svg>